<svg xmlns="http://www.w3.org/2000/svg" width="128" height="128" fill="none" viewBox="0 0 128 128" id="apps">
  <path fill="#000" stroke="#000" stroke-width="7" d="M30.5 57C26.9101 57 24 59.9101 24 63.5 24 67.0898 26.9101 70 30.5 70 34.0898 70 37 67.0899 37 63.5 37 59.9101 34.0898 57 30.5 57zM63.5 57C59.9101 57 57 59.9101 57 63.5 57 67.0898 59.9101 70 63.5 70 67.0898 70 70 67.0899 70 63.5 70 59.9101 67.0898 57 63.5 57zM96.5 57C92.9101 57 90 59.9101 90 63.5 90 67.0898 92.9101 70 96.5 70 100.09 70 103 67.0899 103 63.5 103 59.9101 100.09 57 96.5 57zM30.5 90C26.9101 90 24 92.9101 24 96.5 24 100.09 26.9101 103 30.5 103 34.0898 103 37 100.09 37 96.5 37 92.9101 34.0898 90 30.5 90zM63.5 90C59.9101 90 57 92.9101 57 96.5 57 100.09 59.9101 103 63.5 103 67.0898 103 70 100.09 70 96.5 70 92.9101 67.0898 90 63.5 90zM96.5 90C92.9101 90 90 92.9101 90 96.5 90 100.09 92.9101 103 96.5 103 100.09 103 103 100.09 103 96.5 103 92.9101 100.09 90 96.5 90zM30.5 24C26.9101 24 24 26.9101 24 30.5 24 34.0898 26.9101 37 30.5 37 34.0898 37 37 34.0899 37 30.5 37 26.9101 34.0898 24 30.5 24zM63.5 24C59.9101 24 57 26.9101 57 30.5 57 34.0898 59.9101 37 63.5 37 67.0898 37 70 34.0899 70 30.5 70 26.9101 67.0898 24 63.5 24zM96.5 24C92.9101 24 90 26.9101 90 30.5 90 34.0898 92.9101 37 96.5 37 100.09 37 103 34.0899 103 30.5 103 26.9101 100.09 24 96.5 24z"></path>
</svg>
